<svg xmlns="http://www.w3.org/2000/svg" version="1.1" xmlns:xlink="http://www.w3.org/1999/xlink" xmlns:svgjs="http://svgjs.dev/svgjs" width="2000" height="2000" viewBox="0 0 2000 2000"><g transform="matrix(1,0,0,1,-0.28443113772425477,-0.28443113772459583)"><svg viewBox="0 0 334 334" data-background-color="#ffffff" preserveAspectRatio="xMidYMid meet" height="2000" width="2000" xmlns="http://www.w3.org/2000/svg" xmlns:xlink="http://www.w3.org/1999/xlink"><g id="tight-bounds" transform="matrix(1,0,0,1,0.04749999999998522,0.04750000000001364)"><svg viewBox="0 0 333.90454557049503 333.90454557049503" height="333.90454557049503" width="333.90454557049503"><rect width="333.905" height="333.905" fill="url(#d3f53e0f-bec8-48e9-a040-ea7e67b9d8b0)" mask="url(#2aa714e1-a4fa-4f5f-bf43-3e74d2cc7bc6)" data-fill-palette-color="tertiary"></rect><g><svg></svg></g><g><svg viewBox="0 0 333.90454557049503 333.90454557049503" height="333.90454557049503" width="333.90454557049503"><g><path d="M0 166.952c0-92.205 74.747-166.952 166.952-166.952 92.205 0 166.952 74.747 166.953 166.952 0 92.205-74.747 166.952-166.953 166.953-92.205 0-166.952-74.747-166.952-166.953zM166.952 316.63c82.665 0 149.677-67.013 149.678-149.678 0-82.665-67.013-149.677-149.678-149.677-82.665 0-149.677 67.013-149.677 149.677 0 82.665 67.013 149.677 149.677 149.678z" data-fill-palette-color="tertiary" fill="url(#d3f53e0f-bec8-48e9-a040-ea7e67b9d8b0)" stroke="transparent"></path><ellipse rx="160.27418187383762" ry="160.27418187383762" cx="166.95227278524752" cy="166.95227278524752" fill="url(#d3f53e0f-bec8-48e9-a040-ea7e67b9d8b0)" stroke="transparent" stroke-width="0" fill-opacity="1" data-fill-palette-color="tertiary"></ellipse></g><g transform="matrix(1,0,0,1,71.17305217166896,71.17305217166896)"><svg viewBox="0 0 191.55844122715712 191.55844122715712" height="191.55844122715712" width="191.55844122715712"><g><svg viewBox="0 0 191.55844122715712 191.55844122715712" height="191.55844122715712" width="191.55844122715712"><g><svg viewBox="0 0 191.55844122715712 191.55844122715712" height="191.55844122715712" width="191.55844122715712"><g><svg viewBox="0 0 191.55844122715712 191.55844122715712" height="191.55844122715712" width="191.55844122715712"><g id="textblocktransform"><svg viewBox="0 0 191.55844122715712 191.55844122715712" height="191.55844122715712" width="191.55844122715712" id="textblock"><g><svg viewBox="0 0 191.55844122715712 191.55844122715712" height="191.55844122715712" width="191.55844122715712"><g transform="matrix(1,0,0,1,0,0)"><svg width="191.55844122715712" viewBox="0 -50 43.75 43.75" height="191.55844122715712" data-palette-color="#ffffff"><path d="M37.5-6.25L6.25-6.25 6.25-12.5 0-12.5 0-50 12.5-50 12.5-12.5 31.25-12.5 31.25-50 43.75-50 43.75-12.5 37.5-12.5 37.5-6.25Z" opacity="1" transform="matrix(1,0,0,1,0,0)" fill="#ffffff" class="wordmark-text-0" data-fill-palette-color="quaternary" id="text-0"></path></svg></g></svg></g></svg></g></svg></g><g></g></svg></g></svg></g></svg></g></svg></g><defs></defs><mask id="2aa714e1-a4fa-4f5f-bf43-3e74d2cc7bc6"><g id="SvgjsG1677"><svg viewBox="0 0 333.90454557049503 333.90454557049503" height="333.90454557049503" width="333.90454557049503"><g><svg></svg></g><g><svg viewBox="0 0 333.90454557049503 333.90454557049503" height="333.90454557049503" width="333.90454557049503"><g><path d="M0 166.952c0-92.205 74.747-166.952 166.952-166.952 92.205 0 166.952 74.747 166.953 166.952 0 92.205-74.747 166.952-166.953 166.953-92.205 0-166.952-74.747-166.952-166.953zM166.952 316.63c82.665 0 149.677-67.013 149.678-149.678 0-82.665-67.013-149.677-149.678-149.677-82.665 0-149.677 67.013-149.677 149.677 0 82.665 67.013 149.677 149.677 149.678z" fill="white" stroke="transparent"></path><ellipse rx="160.27418187383762" ry="160.27418187383762" cx="166.95227278524752" cy="166.95227278524752" fill="white" stroke="transparent" stroke-width="0" fill-opacity="1"></ellipse></g><g transform="matrix(1,0,0,1,71.17305217166896,71.17305217166896)"><svg viewBox="0 0 191.55844122715712 191.55844122715712" height="191.55844122715712" width="191.55844122715712"><g><svg viewBox="0 0 191.55844122715712 191.55844122715712" height="191.55844122715712" width="191.55844122715712"><g><svg viewBox="0 0 191.55844122715712 191.55844122715712" height="191.55844122715712" width="191.55844122715712"><g><svg viewBox="0 0 191.55844122715712 191.55844122715712" height="191.55844122715712" width="191.55844122715712"><g id="SvgjsG1676"><svg viewBox="0 0 191.55844122715712 191.55844122715712" height="191.55844122715712" width="191.55844122715712" id="SvgjsSvg1675"><g><svg viewBox="0 0 191.55844122715712 191.55844122715712" height="191.55844122715712" width="191.55844122715712"><g transform="matrix(1,0,0,1,0,0)"><svg width="191.55844122715712" viewBox="0 -50 43.75 43.75" height="191.55844122715712" data-palette-color="#ffffff"><path d="M37.5-6.25L6.25-6.25 6.25-12.5 0-12.5 0-50 12.5-50 12.5-12.5 31.25-12.5 31.25-50 43.75-50 43.75-12.5 37.5-12.5 37.5-6.25Z" opacity="1" transform="matrix(1,0,0,1,0,0)" fill="black" class="wordmark-text-0" id="SvgjsPath1674"></path></svg></g></svg></g></svg></g></svg></g><g></g></svg></g></svg></g></svg></g></svg></g><defs><mask></mask></defs></svg><rect width="333.90454557049503" height="333.90454557049503" fill="black" stroke="none" visibility="hidden"></rect></g></mask><linearGradient x1="0.054" x2="0.941" y1="0.5" y2="0.5" id="d3f53e0f-bec8-48e9-a040-ea7e67b9d8b0"><stop stop-color="#0f3054" offset="0"></stop><stop stop-color="#3b8dcb" offset="0.498"></stop><stop stop-color="#0f3054" offset="1"></stop></linearGradient></svg><rect width="333.90454557049503" height="333.90454557049503" fill="none" stroke="none" visibility="hidden"></rect></g></svg></g></svg>